<svg width="24" height="24" viewBox="0 0 24 24" fill="none" xmlns="http://www.w3.org/2000/svg">
<path opacity="0.24" d="M2 6.44444C2 3.98985 3.98985 2 6.44444 2H17.5556C20.0102 2 22 3.98985 22 6.44444V17.5556C22 20.0102 20.0102 22 17.5556 22H6.44444C3.98985 22 2 20.0102 2 17.5556V6.44444Z" fill="#5D5EFC"/>
<path d="M12 8.66667V15.3333M12 15.3333L15.3333 12.0926M12 15.3333L8.66667 12.0926M6.44444 22H17.5556C20.0102 22 22 20.0102 22 17.5556V6.44444C22 3.98985 20.0102 2 17.5556 2H6.44444C3.98985 2 2 3.98985 2 6.44444V17.5556C2 20.0102 3.98985 22 6.44444 22Z" stroke="#5D5EFC" stroke-width="2" stroke-linecap="round" stroke-linejoin="round"/>
</svg>
