<svg width="24" height="24" viewBox="0 0 24 24" fill="none" xmlns="http://www.w3.org/2000/svg">
<g opacity="0.24">
<path d="M8 4C8 5.10457 7.10457 6 6 6C4.89543 6 4 5.10457 4 4C4 2.89543 4.89543 2 6 2C7.10457 2 8 2.89543 8 4Z" fill="#5D5EFC"/>
<path d="M20 4C20 5.10457 19.1046 6 18 6C16.8954 6 16 5.10457 16 4C16 2.89543 16.8954 2 18 2C19.1046 2 20 2.89543 20 4Z" fill="#5D5EFC"/>
<path d="M8 20C8 21.1046 7.10457 22 6 22C4.89543 22 4 21.1046 4 20C4 18.8954 4.89543 18 6 18C7.10457 18 8 18.8954 8 20Z" fill="#5D5EFC"/>
</g>
<path d="M6 6C7.10457 6 8 5.10457 8 4C8 2.89543 7.10457 2 6 2C4.89543 2 4 2.89543 4 4C4 5.10457 4.89543 6 6 6ZM6 6V14.5M18 6C19.1046 6 20 5.10457 20 4C20 2.89543 19.1046 2 18 2C16.8954 2 16 2.89543 16 4C16 5.10457 16.8954 6 18 6ZM18 6V10C18 11.1046 17.1046 12 16 12H10.1569C9.09599 12 8.07857 12.4214 7.32843 13.1716L6 14.5M6 18C4.89543 18 4 18.8954 4 20C4 21.1046 4.89543 22 6 22C7.10457 22 8 21.1046 8 20C8 18.8954 7.10457 18 6 18ZM6 18V14.5" stroke="#5D5EFC" stroke-width="2" stroke-linecap="round" stroke-linejoin="round"/>
</svg>
